<svg width="281" height="85" viewBox="0 0 281 85" fill="none" xmlns="http://www.w3.org/2000/svg">
<g clip-path="url(#clip0_17_2)">
<path d="M61.3963 84.9174V74.438H68.6528V75.3959H62.514V84.9174H61.3963ZM62.3972 80.4746V79.5167H67.9938V80.4746H62.3972Z" fill="#3F3F3F"/>
<path d="M81.5058 85C80.7135 85 79.9711 84.8679 79.2955 84.6036C78.6199 84.3394 78.0277 83.9678 77.5273 83.4805C77.0269 82.9933 76.6432 82.4318 76.3596 81.7876C76.0844 81.1435 75.9426 80.4416 75.9426 79.6736C75.9426 78.9056 76.0844 78.1954 76.3596 77.5595C76.6348 76.9154 77.0269 76.3538 77.5273 75.8666C78.0277 75.3794 78.6116 75.0078 79.2872 74.7435C79.9628 74.4793 80.7051 74.3471 81.5058 74.3471C82.3066 74.3471 83.0405 74.4793 83.7161 74.7435C84.3917 75.0078 84.9756 75.3794 85.476 75.8584C85.9765 76.3373 86.3602 76.8989 86.6437 77.5513C86.919 78.2036 87.0608 78.9056 87.0608 79.6736C87.0608 80.4416 86.919 81.1518 86.6437 81.7959C86.3685 82.4483 85.9765 83.0098 85.476 83.4888C84.9756 83.9678 84.3917 84.3394 83.7161 84.6036C83.0405 84.8679 82.3066 85 81.5058 85ZM81.5058 84.009C82.1397 84.009 82.7236 83.9017 83.2657 83.687C83.8079 83.4723 84.275 83.1667 84.6753 82.7703C85.0757 82.374 85.3843 81.9198 85.6012 81.3912C85.8264 80.871 85.9348 80.2929 85.9348 79.6653C85.9348 79.0377 85.8264 78.4596 85.6012 77.9394C85.376 77.4191 85.0673 76.9567 84.6753 76.5603C84.275 76.1639 83.8079 75.8666 83.2657 75.6436C82.7236 75.4289 82.1397 75.3216 81.5058 75.3216C80.872 75.3216 80.2798 75.4289 79.7376 75.6436C79.1955 75.8584 78.72 76.1639 78.328 76.5603C77.9277 76.9567 77.6191 77.4109 77.3939 77.9394C77.1687 78.4596 77.0519 79.0377 77.0519 79.6653C77.0519 80.2929 77.1687 80.8545 77.3939 81.383C77.6191 81.9115 77.936 82.374 78.328 82.7703C78.7284 83.1667 79.1955 83.4723 79.7376 83.687C80.2798 83.9017 80.872 84.009 81.5058 84.009Z" fill="#3F3F3F"/>
<path d="M99.8722 85C98.521 85 97.4617 84.6201 96.686 83.8439C95.9103 83.0759 95.5183 81.9363 95.5183 80.4333V74.4297H96.636V80.3838C96.636 81.6225 96.9196 82.5309 97.4784 83.1254C98.0372 83.72 98.8379 84.009 99.8638 84.009C100.89 84.009 101.707 83.7118 102.266 83.1254C102.833 82.5391 103.108 81.6225 103.108 80.3838V74.4297H104.193V80.4333C104.193 81.9445 103.809 83.0759 103.033 83.8439C102.266 84.6119 101.198 85 99.8555 85H99.8722Z" fill="#3F3F3F"/>
<path d="M113.626 84.9174V74.438H114.552L121.85 83.5383H121.366V74.438H122.467V84.9174H121.541L114.26 75.8171H114.744V84.9174H113.626Z" fill="#3F3F3F"/>
<path d="M131.959 84.9174V74.438H136.271C137.397 74.438 138.39 74.6609 139.241 75.1069C140.091 75.5528 140.75 76.1639 141.226 76.9567C141.701 77.7412 141.935 78.6496 141.935 79.6818C141.935 80.7141 141.701 81.6142 141.226 82.407C140.75 83.1998 140.091 83.8108 139.241 84.2568C138.39 84.7027 137.397 84.9257 136.271 84.9257H131.959V84.9174ZM133.077 83.9595H136.205C137.139 83.9595 137.956 83.7778 138.648 83.4145C139.341 83.0511 139.874 82.5474 140.258 81.9032C140.642 81.2591 140.834 80.5159 140.834 79.6818C140.834 78.8478 140.642 78.088 140.258 77.4522C139.874 76.8163 139.341 76.3125 138.648 75.9492C137.956 75.5858 137.147 75.4042 136.205 75.4042H133.077V83.9678V83.9595Z" fill="#3F3F3F"/>
<path d="M148.649 84.9174L153.487 74.438H154.588L159.425 84.9174H158.249L153.804 75.0821H154.254L149.808 84.9174H148.641H148.649ZM150.551 82.118L150.884 81.2178H157.04L157.373 82.118H150.559H150.551Z" fill="#3F3F3F"/>
<path d="M168.75 84.9174V75.3959H165.03V74.438H173.588V75.3959H169.868V84.9174H168.75Z" fill="#3F3F3F"/>
<path d="M181.42 84.9174V74.438H182.537V84.9174H181.42Z" fill="#3F3F3F"/>
<path d="M196.65 85C195.858 85 195.115 84.8679 194.431 84.6036C193.747 84.3394 193.164 83.9678 192.663 83.4805C192.163 82.9933 191.779 82.4318 191.495 81.7876C191.212 81.1435 191.078 80.4416 191.078 79.6736C191.078 78.9056 191.22 78.1954 191.495 77.5595C191.771 76.9236 192.163 76.3538 192.663 75.8666C193.164 75.3794 193.747 75.0078 194.423 74.7435C195.099 74.4793 195.841 74.3471 196.642 74.3471C197.442 74.3471 198.176 74.4793 198.852 74.7435C199.528 75.0078 200.111 75.3794 200.612 75.8584C201.112 76.3373 201.496 76.8989 201.78 77.5513C202.063 78.2036 202.197 78.9056 202.197 79.6736C202.197 80.4416 202.055 81.1518 201.78 81.7959C201.504 82.44 201.112 83.0098 200.612 83.4888C200.111 83.9678 199.528 84.3394 198.852 84.6036C198.176 84.8679 197.442 85 196.642 85H196.65ZM196.65 84.009C197.284 84.009 197.868 83.9017 198.41 83.687C198.952 83.4723 199.419 83.1667 199.819 82.7703C200.22 82.374 200.528 81.9198 200.745 81.3912C200.97 80.871 201.079 80.2929 201.079 79.6653C201.079 79.0377 200.97 78.4596 200.745 77.9394C200.52 77.4191 200.212 76.9567 199.819 76.5603C199.419 76.1639 198.952 75.8666 198.41 75.6436C197.868 75.4289 197.284 75.3216 196.65 75.3216C196.016 75.3216 195.424 75.4289 194.882 75.6436C194.34 75.8584 193.864 76.1639 193.472 76.5603C193.08 76.9567 192.763 77.4109 192.538 77.9394C192.313 78.4596 192.196 79.0377 192.196 79.6653C192.196 80.2929 192.313 80.8545 192.538 81.383C192.763 81.9115 193.08 82.374 193.472 82.7703C193.864 83.1667 194.34 83.4723 194.882 83.687C195.424 83.9017 196.016 84.009 196.65 84.009Z" fill="#3F3F3F"/>
<path d="M210.754 84.9174V74.438H211.68L218.978 83.5383H218.494V74.438H219.595V84.9174H218.678L211.388 75.8171H211.872V84.9174H210.754Z" fill="#3F3F3F"/>
<path d="M10.2258 11.4209C10.8263 10.05 11.3851 8.76179 11.9523 7.48179C12.9449 5.20257 13.9458 2.93161 14.93 0.652391C15.0801 0.305554 15.2552 0.0330383 15.689 0.0247803C16.1227 0.0247803 16.3062 0.305554 16.4563 0.644133C17.9493 4.06296 19.4423 7.48179 20.9353 10.9006C21.002 11.0493 21.0688 11.1979 21.1772 11.4209C21.5525 10.5786 21.8945 9.8023 22.2365 9.0343C23.4375 6.32566 24.6386 3.61703 25.823 0.908391C26.0148 0.470714 26.3068 0.280779 26.7989 0.280779C28.1417 0.297296 29.4929 0.280779 30.8358 0.280779C31.3863 0.280779 31.4947 0.44594 31.2528 0.941423C28.1501 7.51482 25.0473 14.08 21.9362 20.6534C21.7944 20.9589 21.6192 21.2149 21.2105 21.2149C20.8019 21.2149 20.6517 20.9259 20.5099 20.6286C18.9585 17.2593 17.4072 13.89 15.8558 10.5207C15.8141 10.4299 15.764 10.3391 15.689 10.1904C15.4554 10.6859 15.2386 11.1318 15.03 11.5778C13.6705 14.5342 12.311 17.4988 10.9431 20.4552C10.9014 20.546 10.8513 20.6451 10.8096 20.7359C10.6845 21.0167 10.4927 21.2067 10.1507 21.2149C9.80874 21.2149 9.6169 21.025 9.48345 20.7525C9.19986 20.1579 8.91628 19.5633 8.63269 18.977C5.81352 13.0064 2.986 7.0276 0.150143 1.04878C-0.133443 0.44594 -0.0333537 0.297296 0.658929 0.297296C1.95175 0.297296 3.24456 0.313812 4.53738 0.297296C5.07953 0.289038 5.39648 0.503747 5.605 0.974455C7.08131 4.34373 8.57431 7.70476 10.059 11.074C10.1007 11.1649 10.1424 11.2557 10.2258 11.4291V11.4209Z" fill="#2B99B6"/>
<path d="M104.91 10.7767V10.2235C104.91 7.1845 104.91 4.14554 104.91 1.11484C104.91 0.437678 105.052 0.313807 105.802 0.313807C106.987 0.313807 108.18 0.313807 109.364 0.313807C109.939 0.313807 110.131 0.487226 110.131 0.999225C110.131 7.53133 110.131 14.0717 110.131 20.6038C110.131 21.091 109.823 21.281 109.331 21.0828C109.122 21.0002 108.93 20.8433 108.763 20.6946C104.81 17.3089 100.856 13.9231 96.9029 10.529C96.7945 10.4299 96.6777 10.3391 96.4692 10.1739V10.6859C96.4692 13.8405 96.4692 16.995 96.4692 20.1414C96.4692 20.8846 96.2857 21.0415 95.4766 21.0332C94.3006 21.025 93.1329 21.0085 91.9568 20.9919C91.3813 20.9919 91.2228 20.8433 91.2228 20.323C91.2228 13.7496 91.2228 7.17624 91.2228 0.602839C91.2228 0.0660661 91.5064 -0.123869 92.0653 0.0743241C92.3071 0.156904 92.5323 0.313807 92.7242 0.478968C96.6527 3.7987 100.573 7.12669 104.493 10.4464C104.601 10.5373 104.718 10.6281 104.91 10.7767Z" fill="#2B99B6"/>
<path d="M277.714 14.8067C277.455 14.2864 277.205 13.7662 276.946 13.2459C277.105 13.1633 277.222 13.0973 277.338 13.0394C282.051 10.5455 281.809 4.87225 278.89 2.23793C277.372 0.867099 275.503 0.330327 273.46 0.305553C270.758 0.27252 268.047 0.297295 265.344 0.297295C264.794 0.297295 264.627 0.462455 264.627 0.999228C264.627 7.43224 264.627 13.8653 264.627 20.2983C264.627 20.835 264.794 20.9919 265.353 20.9919C266.52 20.9919 267.688 20.9919 268.864 20.9919C269.465 20.9919 269.623 20.835 269.623 20.2487C269.623 18.8779 269.623 17.5071 269.623 16.1362V14.0387C270.265 14.0387 270.849 14.0552 271.425 14.0387C271.742 14.0222 271.9 14.113 272.034 14.3938C272.985 16.3592 273.969 18.3163 274.928 20.29C275.17 20.7855 275.503 21.0167 276.087 21.0002C277.38 20.9754 278.673 21.0002 279.966 21.0002C280.6 21.0002 280.708 20.8516 280.441 20.3148C279.532 18.4815 278.623 16.6482 277.714 14.8149V14.8067ZM273.969 9.51327C273.585 9.57933 273.185 9.58759 272.793 9.59585C271.75 9.6041 270.707 9.59585 269.64 9.59585V4.65754C270.716 4.65754 271.775 4.64928 272.826 4.65754C273.243 4.65754 273.668 4.68231 274.077 4.75664C275.22 4.98786 275.987 5.97883 275.962 7.13495C275.937 8.29108 275.086 9.30682 273.96 9.49675L273.969 9.51327Z" fill="#2B99B6"/>
<path d="M228.011 4.67405V8.55533C228.17 8.55533 228.32 8.55533 228.47 8.55533C230.538 8.55533 232.615 8.55533 234.684 8.55533C235.426 8.55533 235.56 8.68746 235.56 9.43894C235.56 10.3721 235.56 11.3135 235.56 12.2467C235.56 12.7917 235.359 12.9899 234.809 12.9899C232.699 12.9899 230.588 12.9899 228.478 12.9899C228.336 12.9899 228.195 12.9899 228.02 12.9899V16.6069H228.47C231.281 16.6069 234.083 16.6069 236.894 16.6069C237.536 16.6069 237.67 16.7473 237.678 17.3667C237.678 18.3411 237.678 19.3156 237.678 20.29C237.678 20.8185 237.511 20.9919 236.994 20.9919C232.632 20.9919 228.27 20.9919 223.908 20.9919C223.374 20.9919 223.215 20.835 223.215 20.2983C223.215 13.8487 223.215 7.40746 223.215 0.957936C223.215 0.445938 223.374 0.280777 223.883 0.280777C228.261 0.280777 232.632 0.280777 237.011 0.280777C237.52 0.280777 237.678 0.454196 237.686 0.957936C237.686 1.93238 237.686 2.90683 237.686 3.88128C237.686 4.53367 237.545 4.67405 236.894 4.67405C234.1 4.67405 231.306 4.67405 228.503 4.67405H228.02H228.011Z" fill="#2B99B6"/>
<path d="M143.161 8.05159C143.261 7.9525 143.361 7.8534 143.461 7.74604C145.646 5.46683 147.84 3.19586 150.017 0.908388C150.426 0.47897 150.884 0.272519 151.518 0.289035C153.095 0.322067 154.679 0.289035 156.256 0.305551C156.431 0.305551 156.606 0.39639 156.773 0.445938C156.698 0.586324 156.648 0.751485 156.531 0.867098C153.528 3.90606 150.517 6.94501 147.506 9.97571C147.406 10.0831 147.306 10.1904 147.173 10.3226C147.281 10.4382 147.39 10.5538 147.498 10.6694C150.726 13.9065 153.962 17.1437 157.19 20.3726C157.257 20.4387 157.34 20.4965 157.382 20.5708C157.432 20.6616 157.482 20.7855 157.457 20.8763C157.432 20.9424 157.282 20.9754 157.182 21.0002C157.106 21.0167 157.015 21.0002 156.931 21.0002C155.355 21.0002 153.77 20.9919 152.194 21.0002C151.585 21.0002 151.118 20.8103 150.717 20.3974C148.299 17.8787 145.863 15.3682 143.428 12.8578C143.336 12.7669 143.244 12.6761 143.061 12.4944C143.061 12.7174 143.061 12.8495 143.061 12.9816C143.061 15.3765 143.061 17.7713 143.061 20.1661C143.061 20.8433 142.911 20.9837 142.185 20.9919C141.001 20.9919 139.816 20.9919 138.632 20.9919C137.973 20.9919 137.814 20.8433 137.814 20.2322C137.814 13.824 137.814 7.41572 137.814 1.01574C137.814 0.43768 137.981 0.280777 138.607 0.280777C139.833 0.280777 141.059 0.280777 142.285 0.280777C142.877 0.280777 143.061 0.454196 143.061 0.999226C143.061 3.18761 143.061 5.38425 143.061 7.57263C143.061 7.71301 143.061 7.8534 143.061 7.99379C143.094 8.0103 143.119 8.02682 143.152 8.03508L143.161 8.05159Z" fill="#2B99B6"/>
<path d="M189.51 16.5987C190.394 16.5987 191.22 16.5987 192.038 16.5987C193.581 16.5987 195.124 16.5987 196.667 16.5987C197.251 16.5987 197.417 16.7556 197.417 17.3088C197.417 18.3081 197.417 19.3073 197.417 20.3065C197.417 20.8103 197.242 20.9837 196.717 20.9837C192.872 20.9837 189.027 20.9837 185.181 20.9837C184.648 20.9837 184.472 20.8268 184.472 20.3148C184.472 13.857 184.472 7.3992 184.472 0.941415C184.472 0.437675 184.639 0.272514 185.181 0.272514C186.357 0.272514 187.534 0.272514 188.718 0.272514C189.352 0.272514 189.51 0.421159 189.51 1.024C189.51 6.03663 189.51 11.041 189.51 16.0536C189.51 16.2188 189.51 16.3839 189.51 16.5987Z" fill="#2B99B6"/>
<path d="M63.2313 10.6776C63.2313 13.8405 63.2313 17.0033 63.2313 20.1744C63.2313 20.8928 63.0978 21.0002 62.2304 21.0002C60.9126 21.0002 59.6031 21.0002 58.2852 21.0002C57.643 21.0002 57.4428 20.8268 57.4428 20.3148C57.4428 13.8735 57.4428 7.42398 57.4428 0.982709C57.4428 0.487227 57.6597 0.313808 58.2602 0.30555C59.6197 0.30555 60.9793 0.30555 62.3472 0.30555C63.0561 0.30555 63.2396 0.454194 63.2396 1.03226C63.2396 4.24463 63.2396 7.46527 63.2396 10.6776H63.2313Z" fill="#2B99B6"/>
<path d="M160.81 46.4515C160.343 47.459 159.909 48.3756 159.484 49.2922C158.308 51.8275 157.132 54.3627 155.939 56.8896C155.83 57.1209 155.58 57.3603 155.347 57.4347C154.93 57.5668 154.696 57.2612 154.529 56.9227C153.678 55.1307 152.819 53.3469 151.96 51.5549C149.692 46.8148 147.423 42.0747 145.154 37.3346C144.871 36.74 144.971 36.5831 145.663 36.5749C146.939 36.5749 148.215 36.5996 149.483 36.5666C150.1 36.5501 150.442 36.773 150.676 37.3098C152.135 40.6213 153.612 43.9163 155.088 47.2195C155.146 47.3516 155.205 47.4755 155.297 47.6654C155.43 47.3846 155.538 47.1534 155.639 46.9304C157.106 43.6024 158.583 40.2662 160.042 36.93C160.193 36.5914 160.368 36.3106 160.801 36.3023C161.243 36.3023 161.427 36.5831 161.577 36.9217C163.095 40.357 164.613 43.8006 166.123 47.236C166.173 47.3516 166.231 47.4672 166.315 47.6571C166.398 47.5002 166.456 47.3929 166.507 47.2855C168 43.9493 169.492 40.613 170.969 37.2685C171.186 36.7813 171.503 36.5583 172.07 36.5666C173.396 36.5914 174.73 36.5666 176.057 36.5749C176.615 36.5749 176.724 36.7483 176.49 37.2355C173.429 43.652 170.36 50.0768 167.299 56.4932C167.24 56.6171 167.165 56.7492 167.115 56.8731C166.982 57.1787 166.807 57.4429 166.406 57.4512C165.973 57.4594 165.814 57.1621 165.672 56.8483C165.114 55.6427 164.555 54.4453 163.996 53.2396C162.987 51.0677 161.977 48.8959 160.968 46.724C160.935 46.6579 160.902 46.5836 160.826 46.435L160.81 46.4515Z" fill="#2B99B6"/>
<path d="M117.596 41.9343C116.32 39.1431 114.085 37.3181 110.89 36.5749C109.206 36.1785 107.504 36.1207 105.786 36.3436C103.375 36.6574 101.282 37.541 99.647 39.2422C97.5535 41.4141 96.7444 44.0319 96.6694 46.6579C96.6944 48.3178 96.9279 49.7134 97.4451 51.0595C98.446 53.6607 100.198 55.6427 102.983 56.7245C105.319 57.6329 107.754 57.7402 110.223 57.3273C113.284 56.8153 115.645 55.3206 117.121 52.7689C119.148 49.2509 119.289 45.6092 117.613 41.9426L117.596 41.9343ZM112.759 50.1511C111.783 52.1495 110.056 53.0992 107.713 53.1157C105.219 53.124 103.4 52.0009 102.475 49.8373C101.54 47.6571 101.607 45.4935 102.741 43.3877C103.851 41.3232 105.903 40.5387 108.205 40.6956C110.807 40.8773 112.367 42.2564 113.134 44.5191C113.793 46.4515 113.651 48.3343 112.759 50.1593V50.1511Z" fill="#2B99B6"/>
<path d="M212.147 43.4951C212.364 43.1895 212.556 42.917 212.739 42.6445C213.999 40.8277 215.267 39.011 216.509 37.186C216.793 36.7648 217.16 36.5749 217.727 36.5749C219.203 36.5914 220.671 36.5749 222.148 36.5831C222.323 36.5831 222.598 36.6327 222.64 36.7235C222.698 36.8474 222.64 37.0703 222.54 37.2025C220.054 40.7204 217.56 44.2383 215.083 47.7645C214.95 47.9544 214.866 48.2104 214.866 48.4417C214.849 51.1173 214.858 53.7846 214.858 56.4602C214.858 57.1209 214.716 57.2365 213.949 57.2365C212.756 57.2365 211.563 57.2365 210.37 57.2365C209.595 57.2365 209.453 57.1126 209.453 56.4189C209.453 53.8011 209.453 51.1751 209.445 48.5573C209.445 48.2848 209.336 47.9792 209.178 47.7397C206.751 44.2631 204.298 40.803 201.855 37.3346C201.805 37.2685 201.763 37.2025 201.713 37.1364C201.479 36.7731 201.596 36.5831 202.088 36.5831C203.373 36.5831 204.657 36.6409 205.933 36.5583C207.001 36.4923 207.601 36.8474 208.11 37.6319C209.32 39.4899 210.621 41.2985 211.889 43.1317C211.964 43.2391 212.047 43.3465 212.147 43.4868V43.4951Z" fill="#2B99B6"/>
<path d="M63.5482 52.8515C63.7484 52.8515 63.8985 52.8515 64.0487 52.8515C66.3507 52.8515 68.6611 52.8515 70.9631 52.8515C71.5887 52.8515 71.7805 53.0166 71.7805 53.5699C71.7805 54.5526 71.7805 55.5353 71.7805 56.5263C71.7805 57.0548 71.5804 57.2282 70.9882 57.2282C67.0263 57.2282 63.0645 57.2282 59.0943 57.2282C58.5021 57.2282 58.3269 57.0796 58.3269 56.5511C58.3269 50.118 58.3269 43.6933 58.3269 37.2603C58.3269 36.7235 58.5021 36.5749 59.0859 36.5666C60.312 36.5666 61.5298 36.5666 62.7558 36.5666C63.4064 36.5666 63.5482 36.707 63.5482 37.2933C63.5482 42.3059 63.5482 47.3186 63.5482 52.3312C63.5482 52.4964 63.5482 52.6533 63.5482 52.8597V52.8515Z" fill="#2B99B6"/>
</g>
<defs>
<clipPath id="clip0_17_2">
<rect width="281" height="85" fill="white"/>
</clipPath>
</defs>
</svg>
